<?xml version="1.0" encoding="UTF-8" standalone="no"?>
<svg
   data-name="Layer 1"
   viewBox="5 25 90 68"
   x="0px"
   y="0px"
   version="1.1"
   id="svg140"
   sodipodi:docname="noun-owl-3557835.svg"
   inkscape:version="1.2 (dc2aeda, 2022-05-15)"
   xmlns:inkscape="http://www.inkscape.org/namespaces/inkscape"
   xmlns:sodipodi="http://sodipodi.sourceforge.net/DTD/sodipodi-0.dtd"
   xmlns="http://www.w3.org/2000/svg"
   xmlns:svg="http://www.w3.org/2000/svg">
  <defs
     id="defs144" />
  <sodipodi:namedview
     id="namedview142"
     pagecolor="#ffffff"
     bordercolor="#005EB8"
     borderopacity="1"
     inkscape:showpageshadow="0"
     inkscape:pageopacity="0"
     inkscape:pagecheckerboard="1"
     inkscape:deskcolor="#005EB8"
     showgrid="false"
     inkscape:zoom="5.7775765"
     inkscape:cx="34.703132"
     inkscape:cy="70.444762"
     inkscape:window-width="1512"
     inkscape:window-height="916"
     inkscape:window-x="0"
     inkscape:window-y="38"
     inkscape:window-maximized="0"
     inkscape:current-layer="svg140" />
  <title
     id="title132">Artboard 3</title>
  <path
     fill="#005EB8"
     d="M 58.089747,88.767134 A 14.83605,15.395492 0 0 0 72.925796,73.371642 V 50.278404 a 22.254075,23.09324 0 0 0 -44.508151,0 v 3.848875 A 14.83605,15.395492 0 0 0 13.581596,69.52277 V 88.767134 Z M 50.67172,34.882913 a 14.83605,15.395492 0 0 1 12.833184,7.697746 H 61.798758 A 14.83605,15.395492 0 0 0 50.67172,47.824748 14.83605,15.395492 0 0 0 39.544683,42.580659 H 37.838538 A 14.83605,15.395492 0 0 1 50.67172,34.882913 Z M 35.835671,50.278404 h 3.709012 a 7.4180253,7.6977459 0 0 1 7.418026,7.697747 v 3.848872 h 7.418025 v -3.848872 a 7.4180253,7.6977459 0 0 1 7.418024,-7.697747 h 3.709013 v 23.093238 a 7.4180253,7.6977459 0 0 1 -7.418024,7.697747 H 33.832805 a 14.72478,15.280026 0 0 0 2.002866,-7.697747 z M 20.99962,69.52277 a 7.4180253,7.6977459 0 0 1 7.418025,-7.697747 v 11.546619 a 7.4180253,7.6977459 0 0 1 -7.418025,7.697747 z"
     id="path134"
     style="stroke-width:0.944573" />
  <path
     fill="#005EB8"
     d="m 62.283029,85.228498 c 8.707497,0 1.020224,-14.111617 8.638347,-14.169668 l 2.281648,-0.01739 c 5.804996,0 10.510877,-4.116669 10.510877,-9.194839 V 50.353057 C 58.022956,47.891814 74.725166,77.352229 62.283029,85.228498 Z M 78.458461,61.846607 c 0,2.539083 -2.352938,4.59742 -5.255437,4.59742 v -6.896129 c 0,-2.539084 2.352938,-4.597421 5.255437,-4.597421 z"
     id="path134-0"
     style="stroke-width:0.614428"
     sodipodi:nodetypes="cscsccscscs" />
</svg>
