<svg width="26" height="26" viewBox="0 0 26 26" fill="none" xmlns="http://www.w3.org/2000/svg">
<path d="M23.8333 18.135V5.05917C23.8333 3.75917 22.7717 2.795 21.4825 2.90333H21.4175C19.1425 3.09833 15.6867 4.2575 13.7583 5.47083L13.5742 5.59C13.26 5.785 12.74 5.785 12.4258 5.59L12.155 5.4275C10.2267 4.225 6.78166 3.07667 4.50666 2.8925C3.21749 2.78417 2.16666 3.75917 2.16666 5.04833V18.135C2.16666 19.175 3.01166 20.15 4.05166 20.28L4.36582 20.3233C6.71666 20.6375 10.3458 21.8292 12.4258 22.9667L12.4692 22.9883C12.7617 23.1508 13.2275 23.1508 13.5092 22.9883C15.5892 21.84 19.2292 20.6375 21.5908 20.3233L21.9483 20.28C22.9883 20.15 23.8333 19.175 23.8333 18.135Z" stroke="white" stroke-width="1.5" stroke-linecap="round" stroke-linejoin="round"/>
<path d="M13 5.94751V22.1975" stroke="white" stroke-width="1.5" stroke-linecap="round" stroke-linejoin="round"/>
<path d="M8.39584 9.19751H5.95834" stroke="white" stroke-width="1.5" stroke-linecap="round" stroke-linejoin="round"/>
<path d="M9.20834 12.4475H5.95834" stroke="white" stroke-width="1.5" stroke-linecap="round" stroke-linejoin="round"/>
</svg>
